# MagicaVoxel @ Ephtracy

# group
o 

# material
mtllib Street_Platform_2.mtl
usemtl palette

# normals
vn -1 0 0
vn 1 0 0
vn 0 0 1
vn 0 0 -1
vn 0 -1 0
vn 0 1 0

# texcoords
vt 0.748047 0.5
vt 0.779297 0.5
vt 0.806641 0.5
vt 0.810547 0.5

# verts
v 1 1.9 2
v 1 1.9 1.5
v 1 1.9 1.4
v 1 1.9 -2
v 1 2 1.7
v 1 2 1.5
v 1 2 1.4
v 1 2 0.2
v 1 2 0.0999999
v 1 2.1 1.7
v 1 2.1 1.5
v 1 2.1 0.6
v 1 2.1 0.5
v 1 2.1 0.2
v 1 2.1 0.0999999
v 1 2.1 -2.38419e-07
v 1 2.1 -0.2
v 1 2.1 -0.4
v 1 2.1 -0.8
v 1 2.1 -1
v 1 2.1 -1.6
v 1 2.1 -1.8
v 1 2.2 1.7
v 1 2.2 1.2
v 1 2.2 0.8
v 1 2.2 0.6
v 1 2.2 0.5
v 1 2.2 0.0999999
v 1 2.2 -2.38419e-07
v 1 2.2 -0.2
v 1 2.2 -0.4
v 1 2.2 -0.8
v 1 2.2 -1
v 1 2.2 -1.3
v 1 2.2 -1.6
v 1 2.2 -1.8
v 1 2.3 1.7
v 1 2.3 1.2
v 1 2.3 0.8
v 1 2.3 0.6
v 1 2.3 -1
v 1 2.3 -1.3
v 1 2.4 2
v 1 2.4 -2
v 2 1.9 2
v 2 1.9 1.6
v 2 1.9 1.3
v 2 1.9 -2
v 2 2 1.6
v 2 2 1.3
v 2 2 0.9
v 2 2 0.5
v 2 2 0.2
v 2 2 0.0999999
v 2 2 -0.6
v 2 2 -1
v 2 2.1 1.8
v 2 2.1 1.6
v 2 2.1 0.9
v 2 2.1 0.5
v 2 2.1 0.2
v 2 2.1 0.0999999
v 2 2.1 -0.6
v 2 2.1 -1
v 2 2.2 1.8
v 2 2.2 1.6
v 2 2.2 1.5
v 2 2.2 1.3
v 2 2.2 0.4
v 2 2.2 0.0999999
v 2 2.2 -0.8
v 2 2.2 -1
v 2 2.2 -1.3
v 2 2.2 -1.5
v 2 2.3 1.5
v 2 2.3 1.3
v 2 2.3 1.2
v 2 2.3 1.1
v 2 2.3 0.4
v 2 2.3 0.2
v 2 2.3 0.0999999
v 2 2.3 -0.1
v 2 2.3 -0.8
v 2 2.3 -1
v 2 2.3 -1.3
v 2 2.3 -1.5
v 2 2.4 2
v 2 2.4 1.2
v 2 2.4 1.1
v 2 2.4 0.2
v 2 2.4 -0.1
v 2 2.4 -2
v 1 1.9 2
v 1 2.4 2
v 1.4 2 2
v 1.4 2.1 2
v 1.6 2 2
v 1.6 2.1 2
v 1.6 2.2 2
v 1.8 2.1 2
v 1.8 2.2 2
v 2 1.9 2
v 2 2.4 2
v 1 1.9 -2
v 1 2.4 -2
v 1.1 1.9 -2
v 1.1 2 -2
v 1.1 2.1 -2
v 1.1 2.2 -2
v 1.3 2.1 -2
v 1.3 2.2 -2
v 1.4 1.9 -2
v 1.4 2 -2
v 1.6 2.1 -2
v 1.6 2.2 -2
v 1.7 2.2 -2
v 1.7 2.3 -2
v 1.8 2.1 -2
v 1.8 2.2 -2
v 1.9 2.2 -2
v 1.9 2.3 -2
v 2 1.9 -2
v 2 2.4 -2
v 1 1.9 2
v 2 1.9 2
v 1.9 1.9 1.6
v 2 1.9 1.6
v 1 1.9 1.5
v 1.1 1.9 1.5
v 1 1.9 1.4
v 1.1 1.9 1.4
v 1.9 1.9 1.3
v 2 1.9 1.3
v 1.1 1.9 -1.9
v 1.4 1.9 -1.9
v 1 1.9 -2
v 1.1 1.9 -2
v 1.4 1.9 -2
v 2 1.9 -2
v 1 2.4 2
v 2 2.4 2
v 1.2 2.4 1.9
v 1.8 2.4 1.9
v 1.1 2.4 1.8
v 1.2 2.4 1.8
v 1.3 2.4 1.8
v 1.7 2.4 1.8
v 1.8 2.4 1.8
v 1.9 2.4 1.8
v 1.2 2.4 1.7
v 1.3 2.4 1.7
v 1.7 2.4 1.7
v 1.8 2.4 1.7
v 1.9 2.4 1.2
v 2 2.4 1.2
v 1.9 2.4 1.1
v 2 2.4 1.1
v 1.9 2.4 0.2
v 2 2.4 0.2
v 1.9 2.4 -0.1
v 2 2.4 -0.1
v 1.2 2.4 -1.7
v 1.3 2.4 -1.7
v 1.7 2.4 -1.7
v 1.8 2.4 -1.7
v 1.1 2.4 -1.8
v 1.2 2.4 -1.8
v 1.3 2.4 -1.8
v 1.7 2.4 -1.8
v 1.8 2.4 -1.8
v 1.9 2.4 -1.8
v 1.2 2.4 -1.9
v 1.8 2.4 -1.9
v 1 2.4 -2
v 2 2.4 -2

# faces
f 5/2/1 2/2/1 1/2/1
f 6/1/1 3/1/1 2/1/1
f 6/2/1 2/2/1 5/2/1
f 7/2/1 4/2/1 3/2/1
f 7/1/1 3/1/1 6/1/1
f 8/2/1 4/2/1 7/2/1
f 9/2/1 4/2/1 8/2/1
f 10/1/1 6/1/1 5/1/1
f 10/2/1 5/2/1 1/2/1
f 11/2/1 7/2/1 6/2/1
f 11/1/1 6/1/1 10/1/1
f 11/2/1 8/2/1 7/2/1
f 12/2/1 8/2/1 11/2/1
f 13/2/1 8/2/1 12/2/1
f 14/1/1 9/1/1 8/1/1
f 14/2/1 8/2/1 13/2/1
f 15/2/1 4/2/1 9/2/1
f 15/1/1 9/1/1 14/1/1
f 16/2/1 4/2/1 15/2/1
f 17/2/1 4/2/1 16/2/1
f 18/2/1 4/2/1 17/2/1
f 19/2/1 4/2/1 18/2/1
f 20/2/1 4/2/1 19/2/1
f 21/2/1 4/2/1 20/2/1
f 22/2/1 4/2/1 21/2/1
f 23/2/1 10/2/1 1/2/1
f 23/2/1 11/2/1 10/2/1
f 23/2/1 12/2/1 11/2/1
f 24/2/1 12/2/1 23/2/1
f 25/2/1 12/2/1 24/2/1
f 26/1/1 13/1/1 12/1/1
f 26/2/1 12/2/1 25/2/1
f 27/2/1 14/2/1 13/2/1
f 27/1/1 13/1/1 26/1/1
f 27/2/1 15/2/1 14/2/1
f 28/1/1 16/1/1 15/1/1
f 28/2/1 15/2/1 27/2/1
f 29/2/1 17/2/1 16/2/1
f 29/1/1 16/1/1 28/1/1
f 30/1/1 18/1/1 17/1/1
f 30/2/1 17/2/1 29/2/1
f 31/2/1 19/2/1 18/2/1
f 31/1/1 18/1/1 30/1/1
f 32/1/1 20/1/1 19/1/1
f 32/2/1 19/2/1 31/2/1
f 33/2/1 21/2/1 20/2/1
f 33/1/1 20/1/1 32/1/1
f 34/2/1 21/2/1 33/2/1
f 35/1/1 22/1/1 21/1/1
f 35/2/1 21/2/1 34/2/1
f 36/2/1 4/2/1 22/2/1
f 36/1/1 22/1/1 35/1/1
f 37/1/1 24/1/1 23/1/1
f 37/2/1 23/2/1 1/2/1
f 38/2/1 25/2/1 24/2/1
f 38/1/1 24/1/1 37/1/1
f 39/1/1 26/1/1 25/1/1
f 39/2/1 25/2/1 38/2/1
f 40/2/1 32/2/1 31/2/1
f 40/1/1 26/1/1 39/1/1
f 40/2/1 27/2/1 26/2/1
f 40/2/1 33/2/1 32/2/1
f 40/2/1 28/2/1 27/2/1
f 40/2/1 31/2/1 30/2/1
f 40/2/1 30/2/1 29/2/1
f 40/2/1 29/2/1 28/2/1
f 41/1/1 34/1/1 33/1/1
f 41/2/1 33/2/1 40/2/1
f 42/2/1 35/2/1 34/2/1
f 42/1/1 34/1/1 41/1/1
f 42/2/1 36/2/1 35/2/1
f 43/2/1 38/2/1 37/2/1
f 43/2/1 37/2/1 1/2/1
f 43/2/1 42/2/1 41/2/1
f 43/2/1 41/2/1 40/2/1
f 43/2/1 39/2/1 38/2/1
f 43/2/1 40/2/1 39/2/1
f 44/2/1 36/2/1 42/2/1
f 44/2/1 42/2/1 43/2/1
f 44/2/1 4/2/1 36/2/1
f 45/2/2 46/2/2 49/2/2
f 46/1/2 47/1/2 49/1/2
f 47/2/2 48/2/2 50/2/2
f 49/1/2 47/1/2 50/1/2
f 50/2/2 48/2/2 51/2/2
f 51/2/2 48/2/2 52/2/2
f 52/2/2 48/2/2 53/2/2
f 53/2/2 48/2/2 54/2/2
f 54/2/2 48/2/2 55/2/2
f 55/2/2 48/2/2 56/2/2
f 45/2/2 49/2/2 57/2/2
f 49/2/2 50/2/2 57/2/2
f 50/2/2 51/2/2 57/2/2
f 57/2/2 51/2/2 58/2/2
f 51/1/2 52/1/2 59/1/2
f 58/2/2 51/2/2 59/2/2
f 52/2/2 53/2/2 60/2/2
f 59/1/2 52/1/2 60/1/2
f 53/1/2 54/1/2 61/1/2
f 60/2/2 53/2/2 61/2/2
f 54/2/2 55/2/2 62/2/2
f 61/1/2 54/1/2 62/1/2
f 55/1/2 56/1/2 63/1/2
f 62/2/2 55/2/2 63/2/2
f 56/2/2 48/2/2 64/2/2
f 63/1/2 56/1/2 64/1/2
f 57/1/2 58/1/2 65/1/2
f 45/2/2 57/2/2 65/2/2
f 62/2/2 63/2/2 66/2/2
f 65/1/2 58/1/2 66/1/2
f 61/2/2 62/2/2 66/2/2
f 63/2/2 64/2/2 66/2/2
f 59/2/2 60/2/2 66/2/2
f 58/2/2 59/2/2 66/2/2
f 60/2/2 61/2/2 66/2/2
f 66/2/2 64/2/2 67/2/2
f 67/2/2 64/2/2 68/2/2
f 68/2/2 64/2/2 69/2/2
f 69/2/2 64/2/2 70/2/2
f 70/2/2 64/2/2 71/2/2
f 64/2/2 48/2/2 72/2/2
f 71/2/2 64/2/2 72/2/2
f 72/2/2 48/2/2 73/2/2
f 73/2/2 48/2/2 74/2/2
f 65/2/2 66/2/2 75/2/2
f 66/2/2 67/2/2 75/2/2
f 67/1/2 68/1/2 75/1/2
f 68/2/2 69/2/2 76/2/2
f 75/1/2 68/1/2 76/1/2
f 76/2/2 69/2/2 77/2/2
f 77/2/2 69/2/2 78/2/2
f 69/1/2 70/1/2 79/1/2
f 78/2/2 69/2/2 79/2/2
f 79/1/2 70/1/2 80/1/2
f 70/2/2 71/2/2 81/2/2
f 80/1/2 70/1/2 81/1/2
f 81/2/2 71/2/2 82/2/2
f 71/1/2 72/1/2 83/1/2
f 82/2/2 71/2/2 83/2/2
f 72/2/2 73/2/2 84/2/2
f 83/1/2 72/1/2 84/1/2
f 73/1/2 74/1/2 85/1/2
f 84/2/2 73/2/2 85/2/2
f 74/2/2 48/2/2 86/2/2
f 85/1/2 74/1/2 86/1/2
f 45/2/2 65/2/2 87/2/2
f 65/2/2 75/2/2 87/2/2
f 75/2/2 76/2/2 87/2/2
f 76/2/2 77/2/2 87/2/2
f 77/1/2 78/1/2 88/1/2
f 87/2/2 77/2/2 88/2/2
f 79/2/2 80/2/2 89/2/2
f 88/1/2 78/1/2 89/1/2
f 78/2/2 79/2/2 89/2/2
f 81/1/2 82/1/2 90/1/2
f 89/2/2 80/2/2 90/2/2
f 80/1/2 81/1/2 90/1/2
f 84/2/2 85/2/2 91/2/2
f 90/1/2 82/1/2 91/1/2
f 83/2/2 84/2/2 91/2/2
f 82/2/2 83/2/2 91/2/2
f 85/2/2 86/2/2 91/2/2
f 86/2/2 48/2/2 92/2/2
f 91/2/2 86/2/2 92/2/2
f 95/2/3 94/2/3 93/2/3
f 96/2/3 94/2/3 95/2/3
f 97/2/3 95/2/3 93/2/3
f 97/1/3 96/1/3 95/1/3
f 98/2/3 94/2/3 96/2/3
f 98/1/3 96/1/3 97/1/3
f 99/2/3 94/2/3 98/2/3
f 100/2/3 98/2/3 97/2/3
f 100/1/3 99/1/3 98/1/3
f 101/2/3 94/2/3 99/2/3
f 101/1/3 99/1/3 100/1/3
f 102/2/3 97/2/3 93/2/3
f 102/2/3 100/2/3 97/2/3
f 102/2/3 101/2/3 100/2/3
f 103/2/3 94/2/3 101/2/3
f 103/2/3 101/2/3 102/2/3
f 104/2/4 105/2/4 106/2/4
f 106/2/4 105/2/4 107/2/4
f 107/2/4 105/2/4 108/2/4
f 108/2/4 105/2/4 109/2/4
f 107/2/4 108/2/4 110/2/4
f 108/1/4 109/1/4 110/1/4
f 109/2/4 105/2/4 111/2/4
f 110/1/4 109/1/4 111/1/4
f 106/1/4 107/1/4 112/1/4
f 107/2/4 110/2/4 113/2/4
f 112/1/4 107/1/4 113/1/4
f 110/2/4 111/2/4 113/2/4
f 112/2/4 113/2/4 114/2/4
f 113/2/4 111/2/4 114/2/4
f 111/2/4 105/2/4 115/2/4
f 114/2/4 111/2/4 115/2/4
f 114/1/4 115/1/4 116/1/4
f 115/2/4 105/2/4 116/2/4
f 116/2/4 105/2/4 117/2/4
f 112/2/4 114/2/4 118/2/4
f 114/1/4 116/1/4 118/1/4
f 116/1/4 117/1/4 118/1/4
f 118/1/4 117/1/4 119/1/4
f 118/2/4 119/2/4 120/2/4
f 119/1/4 117/1/4 120/1/4
f 117/2/4 105/2/4 121/2/4
f 120/1/4 117/1/4 121/1/4
f 118/2/4 120/2/4 122/2/4
f 112/2/4 118/2/4 122/2/4
f 120/2/4 121/2/4 122/2/4
f 121/2/4 105/2/4 123/2/4
f 122/2/4 121/2/4 123/2/4
f 126/2/5 125/2/5 124/2/5
f 127/2/5 125/2/5 126/2/5
f 128/2/5 126/2/5 124/2/5
f 129/2/5 126/2/5 128/2/5
f 130/1/5 129/1/5 128/1/5
f 131/2/5 126/2/5 129/2/5
f 131/1/5 129/1/5 130/1/5
f 132/1/5 127/1/5 126/1/5
f 132/2/5 126/2/5 131/2/5
f 132/2/5 131/2/5 130/2/5
f 133/1/5 127/1/5 132/1/5
f 134/2/5 132/2/5 130/2/5
f 134/2/5 133/2/5 132/2/5
f 135/2/5 133/2/5 134/2/5
f 136/2/5 134/2/5 130/2/5
f 137/1/5 135/1/5 134/1/5
f 137/2/5 134/2/5 136/2/5
f 138/2/5 133/2/5 135/2/5
f 138/1/5 135/1/5 137/1/5
f 139/2/5 133/2/5 138/2/5
f 140/2/6 141/2/6 142/2/6
f 142/2/6 141/2/6 143/2/6
f 140/2/6 142/2/6 144/2/6
f 142/3/6 143/3/6 145/3/6
f 144/2/6 142/2/6 145/2/6
f 145/3/6 143/3/6 146/3/6
f 146/3/6 143/3/6 147/3/6
f 143/2/6 141/2/6 148/2/6
f 147/3/6 143/3/6 148/3/6
f 148/2/6 141/2/6 149/2/6
f 144/3/6 145/3/6 150/3/6
f 145/3/6 146/3/6 150/3/6
f 146/4/6 147/4/6 151/4/6
f 150/3/6 146/3/6 151/3/6
f 148/3/6 149/3/6 152/3/6
f 151/4/6 147/4/6 152/4/6
f 147/3/6 148/3/6 152/3/6
f 152/3/6 149/3/6 153/3/6
f 149/2/6 141/2/6 154/2/6
f 153/3/6 149/3/6 154/3/6
f 154/2/6 141/2/6 155/2/6
f 153/3/6 154/3/6 156/3/6
f 154/1/6 155/1/6 156/1/6
f 156/1/6 155/1/6 157/1/6
f 153/3/6 156/3/6 158/3/6
f 156/2/6 157/2/6 158/2/6
f 158/2/6 157/2/6 159/2/6
f 153/3/6 158/3/6 160/3/6
f 158/1/6 159/1/6 160/1/6
f 160/1/6 159/1/6 161/1/6
f 144/3/6 150/3/6 162/3/6
f 152/4/6 153/4/6 162/4/6
f 150/4/6 151/4/6 162/4/6
f 151/4/6 152/4/6 162/4/6
f 162/4/6 153/4/6 163/4/6
f 163/4/6 153/4/6 164/4/6
f 153/3/6 160/3/6 165/3/6
f 164/4/6 153/4/6 165/4/6
f 140/2/6 144/2/6 166/2/6
f 144/3/6 162/3/6 166/3/6
f 162/3/6 163/3/6 166/3/6
f 166/3/6 163/3/6 167/3/6
f 163/4/6 164/4/6 168/4/6
f 167/3/6 163/3/6 168/3/6
f 164/3/6 165/3/6 169/3/6
f 168/4/6 164/4/6 169/4/6
f 165/3/6 160/3/6 170/3/6
f 169/3/6 165/3/6 170/3/6
f 160/2/6 161/2/6 171/2/6
f 170/3/6 160/3/6 171/3/6
f 168/3/6 169/3/6 172/3/6
f 169/3/6 170/3/6 172/3/6
f 166/2/6 167/2/6 172/2/6
f 167/3/6 168/3/6 172/3/6
f 170/2/6 171/2/6 173/2/6
f 172/3/6 170/3/6 173/3/6
f 166/2/6 172/2/6 174/2/6
f 140/2/6 166/2/6 174/2/6
f 172/2/6 173/2/6 174/2/6
f 171/2/6 161/2/6 175/2/6
f 174/2/6 173/2/6 175/2/6
f 173/2/6 171/2/6 175/2/6
