# MagicaVoxel @ Ephtracy

# group
o 

# material
mtllib Street_Platform_3.mtl
usemtl palette

# normals
vn -1 0 0
vn 1 0 0
vn 0 0 1
vn 0 0 -1
vn 0 -1 0
vn 0 1 0

# texcoords
vt 0.748047 0.5
vt 0.779297 0.5
vt 0.806641 0.5
vt 0.810547 0.5

# verts
v 1 1.9 2
v 1 1.9 1.5
v 1 1.9 1.4
v 1 1.9 -2
v 1 2 1.7
v 1 2 1.5
v 1 2 1.4
v 1 2 0.2
v 1 2 0.0999999
v 1 2.1 1.7
v 1 2.1 1.5
v 1 2.1 0.6
v 1 2.1 0.5
v 1 2.1 0.2
v 1 2.1 0.0999999
v 1 2.1 -2.38419e-07
v 1 2.1 -0.2
v 1 2.1 -0.4
v 1 2.1 -0.8
v 1 2.1 -1
v 1 2.1 -1.6
v 1 2.1 -1.8
v 1 2.2 1.7
v 1 2.2 1.2
v 1 2.2 0.8
v 1 2.2 0.6
v 1 2.2 0.5
v 1 2.2 0.0999999
v 1 2.2 -2.38419e-07
v 1 2.2 -0.2
v 1 2.2 -0.4
v 1 2.2 -0.8
v 1 2.2 -1
v 1 2.2 -1.3
v 1 2.2 -1.6
v 1 2.2 -1.8
v 1 2.3 1.7
v 1 2.3 1.2
v 1 2.3 0.8
v 1 2.3 0.6
v 1 2.3 -1
v 1 2.3 -1.3
v 1 2.4 2
v 1 2.4 0.0999999
v 1 2.6 -0.5
v 1 2.6 -0.8
v 1 2.6 -1.3
v 1 2.6 -1.5
v 1 2.7 0.0999999
v 1 2.7 -2.38419e-07
v 1 2.7 -0.3
v 1 2.7 -0.5
v 1 2.7 -0.6
v 1 2.7 -0.8
v 1 2.7 -1.3
v 1 2.7 -1.5
v 1 2.8 0.0999999
v 1 2.8 -2.38419e-07
v 1 2.8 -0.3
v 1 2.8 -0.6
v 1 2.9 0.0999999
v 1 2.9 -2
v 1.7 2.4 -2.38419e-07
v 1.7 2.4 -0.1
v 1.7 2.5 -2.38419e-07
v 1.7 2.5 -0.1
v 1.7 2.6 -2.38419e-07
v 1.7 2.6 -0.1
v 1.7 2.7 -2.38419e-07
v 1.7 2.7 -0.1
v 1.8 2.4 -0.1
v 1.8 2.4 -0.2
v 1.8 2.6 -0.1
v 1.8 2.6 -0.2
v 1.6 2.4 -2.38419e-07
v 1.6 2.4 -0.1
v 1.6 2.5 -2.38419e-07
v 1.6 2.5 -0.1
v 1.6 2.6 -2.38419e-07
v 1.6 2.6 -0.1
v 1.6 2.7 -2.38419e-07
v 1.6 2.7 -0.1
v 1.7 2.4 -0.1
v 1.7 2.4 -0.2
v 1.7 2.6 -0.1
v 1.7 2.6 -0.2
v 2 1.9 2
v 2 1.9 1.6
v 2 1.9 1.3
v 2 1.9 -2
v 2 2 1.6
v 2 2 1.3
v 2 2 0.9
v 2 2 0.5
v 2 2 0.2
v 2 2 0.0999999
v 2 2 -0.6
v 2 2 -1
v 2 2.1 1.8
v 2 2.1 1.6
v 2 2.1 0.9
v 2 2.1 0.5
v 2 2.1 0.2
v 2 2.1 0.0999999
v 2 2.1 -0.6
v 2 2.1 -1
v 2 2.2 1.8
v 2 2.2 1.6
v 2 2.2 1.5
v 2 2.2 1.3
v 2 2.2 0.4
v 2 2.2 0.0999999
v 2 2.2 -0.8
v 2 2.2 -1
v 2 2.2 -1.3
v 2 2.2 -1.5
v 2 2.3 1.5
v 2 2.3 1.3
v 2 2.3 1.2
v 2 2.3 1.1
v 2 2.3 0.4
v 2 2.3 0.2
v 2 2.3 0.0999999
v 2 2.3 -0.1
v 2 2.3 -0.8
v 2 2.3 -1
v 2 2.3 -1.3
v 2 2.3 -1.5
v 2 2.4 2
v 2 2.4 1.2
v 2 2.4 1.1
v 2 2.4 0.2
v 2 2.4 0.0999999
v 2 2.4 -0.1
v 2 2.4 -1.4
v 2 2.4 -1.7
v 2 2.5 -1.2
v 2 2.5 -1.4
v 2 2.5 -1.5
v 2 2.5 -1.7
v 2 2.6 -0.3
v 2 2.6 -0.5
v 2 2.6 -1.2
v 2 2.6 -1.5
v 2 2.7 -0.3
v 2 2.7 -0.5
v 2 2.7 -1.2
v 2 2.7 -1.6
v 2 2.8 -0.6
v 2 2.8 -0.8
v 2 2.8 -1.2
v 2 2.8 -1.6
v 2 2.9 0.0999999
v 2 2.9 -0.6
v 2 2.9 -0.8
v 2 2.9 -2
v 1 1.9 2
v 1 2.4 2
v 1.4 2 2
v 1.4 2.1 2
v 1.6 2 2
v 1.6 2.1 2
v 1.6 2.2 2
v 1.8 2.1 2
v 1.8 2.2 2
v 2 1.9 2
v 2 2.4 2
v 1 2.4 0.0999999
v 1 2.7 0.0999999
v 1 2.8 0.0999999
v 1 2.9 0.0999999
v 1.2 2.7 0.0999999
v 1.2 2.8 0.0999999
v 1.3 2.5 0.0999999
v 1.3 2.6 0.0999999
v 1.5 2.4 0.0999999
v 1.5 2.5 0.0999999
v 1.6 2.5 0.0999999
v 1.6 2.6 0.0999999
v 1.7 2.4 0.0999999
v 1.7 2.5 0.0999999
v 1.7 2.7 0.0999999
v 1.7 2.8 0.0999999
v 1.9 2.4 0.0999999
v 1.9 2.7 0.0999999
v 1.9 2.8 0.0999999
v 2 2.4 0.0999999
v 2 2.9 0.0999999
v 1.6 2.4 -0.1
v 1.6 2.5 -0.1
v 1.6 2.6 -0.1
v 1.6 2.7 -0.1
v 1.7 2.4 -0.1
v 1.7 2.5 -0.1
v 1.7 2.6 -0.1
v 1.7 2.7 -0.1
v 1.7 2.4 -0.2
v 1.7 2.6 -0.2
v 1.8 2.4 -0.2
v 1.8 2.6 -0.2
v 1.6 2.4 -2.38419e-07
v 1.6 2.5 -2.38419e-07
v 1.6 2.6 -2.38419e-07
v 1.6 2.7 -2.38419e-07
v 1.7 2.4 -2.38419e-07
v 1.7 2.5 -2.38419e-07
v 1.7 2.6 -2.38419e-07
v 1.7 2.7 -2.38419e-07
v 1.7 2.4 -0.1
v 1.7 2.6 -0.1
v 1.8 2.4 -0.1
v 1.8 2.6 -0.1
v 1 1.9 -2
v 1 2.9 -2
v 1.1 1.9 -2
v 1.1 2 -2
v 1.1 2.1 -2
v 1.1 2.2 -2
v 1.2 2.6 -2
v 1.2 2.7 -2
v 1.3 2.1 -2
v 1.3 2.2 -2
v 1.3 2.6 -2
v 1.3 2.7 -2
v 1.4 1.9 -2
v 1.4 2 -2
v 1.5 2.6 -2
v 1.5 2.7 -2
v 1.6 2.1 -2
v 1.6 2.2 -2
v 1.6 2.4 -2
v 1.6 2.5 -2
v 1.6 2.7 -2
v 1.6 2.8 -2
v 1.7 2.2 -2
v 1.7 2.3 -2
v 1.7 2.6 -2
v 1.7 2.7 -2
v 1.8 2.1 -2
v 1.8 2.2 -2
v 1.8 2.4 -2
v 1.8 2.5 -2
v 1.8 2.7 -2
v 1.8 2.8 -2
v 1.9 2.2 -2
v 1.9 2.3 -2
v 2 1.9 -2
v 2 2.9 -2
v 1 1.9 2
v 2 1.9 2
v 1.9 1.9 1.6
v 2 1.9 1.6
v 1 1.9 1.5
v 1.1 1.9 1.5
v 1 1.9 1.4
v 1.1 1.9 1.4
v 1.9 1.9 1.3
v 2 1.9 1.3
v 1.1 1.9 -1.9
v 1.4 1.9 -1.9
v 1 1.9 -2
v 1.1 1.9 -2
v 1.4 1.9 -2
v 2 1.9 -2
v 1.6 2.5 -2.38419e-07
v 1.7 2.5 -2.38419e-07
v 1.6 2.5 -0.1
v 1.7 2.5 -0.1
v 1.7 2.6 -0.1
v 1.8 2.6 -0.1
v 1.7 2.6 -0.2
v 1.8 2.6 -0.2
v 1.6 2.7 -2.38419e-07
v 1.7 2.7 -2.38419e-07
v 1.6 2.7 -0.1
v 1.7 2.7 -0.1
v 1 2.4 2
v 2 2.4 2
v 1.2 2.4 1.9
v 1.8 2.4 1.9
v 1.1 2.4 1.8
v 1.2 2.4 1.8
v 1.3 2.4 1.8
v 1.7 2.4 1.8
v 1.8 2.4 1.8
v 1.9 2.4 1.8
v 1.2 2.4 1.7
v 1.3 2.4 1.7
v 1.7 2.4 1.7
v 1.8 2.4 1.7
v 1.9 2.4 1.2
v 2 2.4 1.2
v 1.9 2.4 1.1
v 2 2.4 1.1
v 1.2 2.4 0.4
v 1.3 2.4 0.4
v 1.7 2.4 0.4
v 1.8 2.4 0.4
v 1.1 2.4 0.3
v 1.2 2.4 0.3
v 1.3 2.4 0.3
v 1.7 2.4 0.3
v 1.8 2.4 0.3
v 1.9 2.4 0.3
v 1.2 2.4 0.2
v 1.8 2.4 0.2
v 1.9 2.4 0.2
v 2 2.4 0.2
v 1 2.4 0.0999999
v 1.5 2.4 0.0999999
v 1.7 2.4 0.0999999
v 1.9 2.4 0.0999999
v 2 2.4 0.0999999
v 1.6 2.4 -2.38419e-07
v 1.7 2.4 -2.38419e-07
v 1.6 2.4 -0.1
v 1.7 2.4 -0.1
v 1.8 2.4 -0.1
v 1.7 2.4 -0.2
v 1.8 2.4 -0.2
v 1.6 2.6 -2.38419e-07
v 1.7 2.6 -2.38419e-07
v 1.6 2.6 -0.1
v 1.7 2.6 -0.1
v 1 2.9 0.0999999
v 2 2.9 0.0999999
v 1.2 2.9 -2.38419e-07
v 1.8 2.9 -2.38419e-07
v 1.1 2.9 -0.1
v 1.2 2.9 -0.1
v 1.3 2.9 -0.1
v 1.7 2.9 -0.1
v 1.8 2.9 -0.1
v 1.9 2.9 -0.1
v 1.2 2.9 -0.2
v 1.3 2.9 -0.2
v 1.7 2.9 -0.2
v 1.8 2.9 -0.2
v 1.9 2.9 -0.6
v 2 2.9 -0.6
v 1.9 2.9 -0.8
v 2 2.9 -0.8
v 1.2 2.9 -1.7
v 1.3 2.9 -1.7
v 1.7 2.9 -1.7
v 1.8 2.9 -1.7
v 1.1 2.9 -1.8
v 1.2 2.9 -1.8
v 1.3 2.9 -1.8
v 1.7 2.9 -1.8
v 1.8 2.9 -1.8
v 1.9 2.9 -1.8
v 1.2 2.9 -1.9
v 1.8 2.9 -1.9
v 1 2.9 -2
v 2 2.9 -2

# faces
f 5/2/1 2/2/1 1/2/1
f 6/1/1 3/1/1 2/1/1
f 6/2/1 2/2/1 5/2/1
f 7/2/1 4/2/1 3/2/1
f 7/1/1 3/1/1 6/1/1
f 8/2/1 4/2/1 7/2/1
f 9/2/1 4/2/1 8/2/1
f 10/1/1 6/1/1 5/1/1
f 10/2/1 5/2/1 1/2/1
f 11/2/1 7/2/1 6/2/1
f 11/1/1 6/1/1 10/1/1
f 11/2/1 8/2/1 7/2/1
f 12/2/1 8/2/1 11/2/1
f 13/2/1 8/2/1 12/2/1
f 14/1/1 9/1/1 8/1/1
f 14/2/1 8/2/1 13/2/1
f 15/2/1 4/2/1 9/2/1
f 15/1/1 9/1/1 14/1/1
f 16/2/1 4/2/1 15/2/1
f 17/2/1 4/2/1 16/2/1
f 18/2/1 4/2/1 17/2/1
f 19/2/1 4/2/1 18/2/1
f 20/2/1 4/2/1 19/2/1
f 21/2/1 4/2/1 20/2/1
f 22/2/1 4/2/1 21/2/1
f 23/2/1 10/2/1 1/2/1
f 23/2/1 11/2/1 10/2/1
f 23/2/1 12/2/1 11/2/1
f 24/2/1 12/2/1 23/2/1
f 25/2/1 12/2/1 24/2/1
f 26/1/1 13/1/1 12/1/1
f 26/2/1 12/2/1 25/2/1
f 27/2/1 14/2/1 13/2/1
f 27/1/1 13/1/1 26/1/1
f 27/2/1 15/2/1 14/2/1
f 28/1/1 16/1/1 15/1/1
f 28/2/1 15/2/1 27/2/1
f 29/2/1 17/2/1 16/2/1
f 29/1/1 16/1/1 28/1/1
f 30/1/1 18/1/1 17/1/1
f 30/2/1 17/2/1 29/2/1
f 31/2/1 19/2/1 18/2/1
f 31/1/1 18/1/1 30/1/1
f 32/1/1 20/1/1 19/1/1
f 32/2/1 19/2/1 31/2/1
f 33/2/1 21/2/1 20/2/1
f 33/1/1 20/1/1 32/1/1
f 34/2/1 21/2/1 33/2/1
f 35/1/1 22/1/1 21/1/1
f 35/2/1 21/2/1 34/2/1
f 36/2/1 4/2/1 22/2/1
f 36/1/1 22/1/1 35/1/1
f 37/1/1 24/1/1 23/1/1
f 37/2/1 23/2/1 1/2/1
f 38/2/1 25/2/1 24/2/1
f 38/1/1 24/1/1 37/1/1
f 39/1/1 26/1/1 25/1/1
f 39/2/1 25/2/1 38/2/1
f 40/2/1 32/2/1 31/2/1
f 40/1/1 26/1/1 39/1/1
f 40/2/1 27/2/1 26/2/1
f 40/2/1 33/2/1 32/2/1
f 40/2/1 28/2/1 27/2/1
f 40/2/1 31/2/1 30/2/1
f 40/2/1 30/2/1 29/2/1
f 40/2/1 29/2/1 28/2/1
f 41/1/1 34/1/1 33/1/1
f 41/2/1 33/2/1 40/2/1
f 42/2/1 35/2/1 34/2/1
f 42/1/1 34/1/1 41/1/1
f 42/2/1 36/2/1 35/2/1
f 43/2/1 38/2/1 37/2/1
f 43/2/1 37/2/1 1/2/1
f 43/2/1 42/2/1 41/2/1
f 43/2/1 41/2/1 40/2/1
f 43/2/1 39/2/1 38/2/1
f 43/2/1 40/2/1 39/2/1
f 44/2/1 42/2/1 43/2/1
f 45/2/1 42/2/1 44/2/1
f 46/2/1 42/2/1 45/2/1
f 47/2/1 36/2/1 42/2/1
f 47/2/1 42/2/1 46/2/1
f 48/2/1 36/2/1 47/2/1
f 49/2/1 45/2/1 44/2/1
f 50/2/1 45/2/1 49/2/1
f 51/2/1 45/2/1 50/2/1
f 52/1/1 46/1/1 45/1/1
f 52/2/1 45/2/1 51/2/1
f 53/1/1 46/1/1 52/1/1
f 54/2/1 47/2/1 46/2/1
f 54/1/1 46/1/1 53/1/1
f 55/1/1 48/1/1 47/1/1
f 55/2/1 47/2/1 54/2/1
f 56/2/1 36/2/1 48/2/1
f 56/1/1 48/1/1 55/1/1
f 57/1/1 50/1/1 49/1/1
f 58/2/1 51/2/1 50/2/1
f 58/1/1 50/1/1 57/1/1
f 59/1/1 53/1/1 52/1/1
f 59/2/1 51/2/1 58/2/1
f 59/1/1 52/1/1 51/1/1
f 60/2/1 55/2/1 54/2/1
f 60/1/1 53/1/1 59/1/1
f 60/2/1 54/2/1 53/2/1
f 60/2/1 56/2/1 55/2/1
f 61/2/1 59/2/1 58/2/1
f 61/2/1 58/2/1 57/2/1
f 61/2/1 60/2/1 59/2/1
f 62/2/1 4/2/1 36/2/1
f 62/2/1 60/2/1 61/2/1
f 62/2/1 56/2/1 60/2/1
f 62/2/1 36/2/1 56/2/1
f 65/3/1 64/3/1 63/3/1
f 66/3/1 64/3/1 65/3/1
f 69/3/1 68/3/1 67/3/1
f 70/3/1 68/3/1 69/3/1
f 73/3/1 72/3/1 71/3/1
f 74/3/1 72/3/1 73/3/1
f 75/3/2 76/3/2 77/3/2
f 77/3/2 76/3/2 78/3/2
f 79/3/2 80/3/2 81/3/2
f 81/3/2 80/3/2 82/3/2
f 83/4/2 84/4/2 85/4/2
f 85/4/2 84/4/2 86/4/2
f 87/2/2 88/2/2 91/2/2
f 88/1/2 89/1/2 91/1/2
f 89/2/2 90/2/2 92/2/2
f 91/1/2 89/1/2 92/1/2
f 92/2/2 90/2/2 93/2/2
f 93/2/2 90/2/2 94/2/2
f 94/2/2 90/2/2 95/2/2
f 95/2/2 90/2/2 96/2/2
f 96/2/2 90/2/2 97/2/2
f 97/2/2 90/2/2 98/2/2
f 87/2/2 91/2/2 99/2/2
f 91/2/2 92/2/2 99/2/2
f 92/2/2 93/2/2 99/2/2
f 99/2/2 93/2/2 100/2/2
f 93/1/2 94/1/2 101/1/2
f 100/2/2 93/2/2 101/2/2
f 94/2/2 95/2/2 102/2/2
f 101/1/2 94/1/2 102/1/2
f 95/1/2 96/1/2 103/1/2
f 102/2/2 95/2/2 103/2/2
f 96/2/2 97/2/2 104/2/2
f 103/1/2 96/1/2 104/1/2
f 97/1/2 98/1/2 105/1/2
f 104/2/2 97/2/2 105/2/2
f 98/2/2 90/2/2 106/2/2
f 105/1/2 98/1/2 106/1/2
f 99/1/2 100/1/2 107/1/2
f 87/2/2 99/2/2 107/2/2
f 104/2/2 105/2/2 108/2/2
f 107/1/2 100/1/2 108/1/2
f 103/2/2 104/2/2 108/2/2
f 105/2/2 106/2/2 108/2/2
f 101/2/2 102/2/2 108/2/2
f 100/2/2 101/2/2 108/2/2
f 102/2/2 103/2/2 108/2/2
f 108/2/2 106/2/2 109/2/2
f 109/2/2 106/2/2 110/2/2
f 110/2/2 106/2/2 111/2/2
f 111/2/2 106/2/2 112/2/2
f 112/2/2 106/2/2 113/2/2
f 106/2/2 90/2/2 114/2/2
f 113/2/2 106/2/2 114/2/2
f 114/2/2 90/2/2 115/2/2
f 115/2/2 90/2/2 116/2/2
f 107/2/2 108/2/2 117/2/2
f 108/2/2 109/2/2 117/2/2
f 109/1/2 110/1/2 117/1/2
f 110/2/2 111/2/2 118/2/2
f 117/1/2 110/1/2 118/1/2
f 118/2/2 111/2/2 119/2/2
f 119/2/2 111/2/2 120/2/2
f 111/1/2 112/1/2 121/1/2
f 120/2/2 111/2/2 121/2/2
f 121/1/2 112/1/2 122/1/2
f 112/2/2 113/2/2 123/2/2
f 122/1/2 112/1/2 123/1/2
f 123/2/2 113/2/2 124/2/2
f 113/1/2 114/1/2 125/1/2
f 124/2/2 113/2/2 125/2/2
f 114/2/2 115/2/2 126/2/2
f 125/1/2 114/1/2 126/1/2
f 115/1/2 116/1/2 127/1/2
f 126/2/2 115/2/2 127/2/2
f 116/2/2 90/2/2 128/2/2
f 127/1/2 116/1/2 128/1/2
f 87/2/2 107/2/2 129/2/2
f 107/2/2 117/2/2 129/2/2
f 117/2/2 118/2/2 129/2/2
f 118/2/2 119/2/2 129/2/2
f 119/1/2 120/1/2 130/1/2
f 129/2/2 119/2/2 130/2/2
f 121/2/2 122/2/2 131/2/2
f 130/1/2 120/1/2 131/1/2
f 120/2/2 121/2/2 131/2/2
f 123/1/2 124/1/2 132/1/2
f 131/2/2 122/2/2 132/2/2
f 122/1/2 123/1/2 132/1/2
f 132/1/2 124/1/2 133/1/2
f 126/2/2 127/2/2 134/2/2
f 133/1/2 124/1/2 134/1/2
f 125/2/2 126/2/2 134/2/2
f 124/2/2 125/2/2 134/2/2
f 127/2/2 128/2/2 134/2/2
f 134/2/2 128/2/2 135/2/2
f 128/2/2 90/2/2 136/2/2
f 135/2/2 128/2/2 136/2/2
f 134/2/2 135/2/2 137/2/2
f 133/2/2 134/2/2 137/2/2
f 135/1/2 136/1/2 138/1/2
f 137/2/2 135/2/2 138/2/2
f 138/1/2 136/1/2 139/1/2
f 136/2/2 90/2/2 140/2/2
f 139/1/2 136/1/2 140/1/2
f 133/2/2 137/2/2 141/2/2
f 141/2/2 137/2/2 142/2/2
f 138/1/2 139/1/2 143/1/2
f 142/2/2 137/2/2 143/2/2
f 137/1/2 138/1/2 143/1/2
f 139/2/2 140/2/2 144/2/2
f 143/1/2 139/1/2 144/1/2
f 141/1/2 142/1/2 145/1/2
f 133/2/2 141/2/2 145/2/2
f 143/2/2 144/2/2 146/2/2
f 145/1/2 142/1/2 146/1/2
f 142/2/2 143/2/2 146/2/2
f 146/2/2 144/2/2 147/2/2
f 144/2/2 140/2/2 148/2/2
f 147/2/2 144/2/2 148/2/2
f 146/2/2 147/2/2 149/2/2
f 145/2/2 146/2/2 149/2/2
f 149/2/2 147/2/2 150/2/2
f 147/1/2 148/1/2 151/1/2
f 150/2/2 147/2/2 151/2/2
f 148/2/2 140/2/2 152/2/2
f 151/1/2 148/1/2 152/1/2
f 133/2/2 145/2/2 153/2/2
f 145/2/2 149/2/2 153/2/2
f 149/1/2 150/1/2 154/1/2
f 153/2/2 149/2/2 154/2/2
f 150/2/2 151/2/2 155/2/2
f 154/1/2 150/1/2 155/1/2
f 151/2/2 152/2/2 155/2/2
f 140/2/2 90/2/2 156/2/2
f 155/2/2 152/2/2 156/2/2
f 152/2/2 140/2/2 156/2/2
f 159/2/3 158/2/3 157/2/3
f 160/2/3 158/2/3 159/2/3
f 161/2/3 159/2/3 157/2/3
f 161/1/3 160/1/3 159/1/3
f 162/2/3 158/2/3 160/2/3
f 162/1/3 160/1/3 161/1/3
f 163/2/3 158/2/3 162/2/3
f 164/2/3 162/2/3 161/2/3
f 164/1/3 163/1/3 162/1/3
f 165/2/3 158/2/3 163/2/3
f 165/1/3 163/1/3 164/1/3
f 166/2/3 161/2/3 157/2/3
f 166/2/3 164/2/3 161/2/3
f 166/2/3 165/2/3 164/2/3
f 167/2/3 158/2/3 165/2/3
f 167/2/3 165/2/3 166/2/3
f 172/2/3 169/2/3 168/2/3
f 172/1/3 170/1/3 169/1/3
f 173/2/3 171/2/3 170/2/3
f 173/1/3 170/1/3 172/1/3
f 174/2/3 172/2/3 168/2/3
f 174/2/3 173/2/3 172/2/3
f 175/2/3 173/2/3 174/2/3
f 176/2/3 174/2/3 168/2/3
f 177/1/3 175/1/3 174/1/3
f 177/2/3 174/2/3 176/2/3
f 178/1/3 177/1/3 176/1/3
f 178/1/3 175/1/3 177/1/3
f 179/2/3 173/2/3 175/2/3
f 179/1/3 175/1/3 178/1/3
f 180/1/3 178/1/3 176/1/3
f 181/2/3 179/2/3 178/2/3
f 181/1/3 178/1/3 180/1/3
f 182/2/3 173/2/3 179/2/3
f 182/2/3 179/2/3 181/2/3
f 183/2/3 171/2/3 173/2/3
f 183/2/3 173/2/3 182/2/3
f 184/2/3 182/2/3 181/2/3
f 184/2/3 181/2/3 180/2/3
f 185/1/3 183/1/3 182/1/3
f 185/2/3 182/2/3 184/2/3
f 186/2/3 171/2/3 183/2/3
f 186/1/3 183/1/3 185/1/3
f 187/2/3 185/2/3 184/2/3
f 187/2/3 186/2/3 185/2/3
f 188/2/3 171/2/3 186/2/3
f 188/2/3 186/2/3 187/2/3
f 193/4/3 190/4/3 189/4/3
f 194/4/3 190/4/3 193/4/3
f 195/4/3 192/4/3 191/4/3
f 196/4/3 192/4/3 195/4/3
f 199/4/3 198/4/3 197/4/3
f 200/4/3 198/4/3 199/4/3
f 201/1/4 202/1/4 205/1/4
f 205/1/4 202/1/4 206/1/4
f 203/2/4 204/2/4 207/2/4
f 207/2/4 204/2/4 208/2/4
f 209/3/4 210/3/4 211/3/4
f 211/3/4 210/3/4 212/3/4
f 213/2/4 214/2/4 215/2/4
f 215/2/4 214/2/4 216/2/4
f 216/2/4 214/2/4 217/2/4
f 217/2/4 214/2/4 218/2/4
f 218/2/4 214/2/4 219/2/4
f 219/2/4 214/2/4 220/2/4
f 216/2/4 217/2/4 221/2/4
f 217/1/4 218/1/4 221/1/4
f 218/2/4 219/2/4 222/2/4
f 221/1/4 218/1/4 222/1/4
f 219/1/4 220/1/4 223/1/4
f 222/2/4 219/2/4 223/2/4
f 220/2/4 214/2/4 224/2/4
f 223/1/4 220/1/4 224/1/4
f 215/1/4 216/1/4 225/1/4
f 222/2/4 223/2/4 226/2/4
f 225/1/4 216/1/4 226/1/4
f 221/2/4 222/2/4 226/2/4
f 223/2/4 224/2/4 226/2/4
f 216/2/4 221/2/4 226/2/4
f 225/2/4 226/2/4 227/2/4
f 226/2/4 224/2/4 227/2/4
f 224/2/4 214/2/4 228/2/4
f 227/2/4 224/2/4 228/2/4
f 225/2/4 227/2/4 229/2/4
f 229/2/4 227/2/4 230/2/4
f 230/2/4 227/2/4 231/2/4
f 231/2/4 227/2/4 232/2/4
f 228/2/4 214/2/4 233/2/4
f 227/1/4 228/1/4 233/1/4
f 233/2/4 214/2/4 234/2/4
f 229/1/4 230/1/4 235/1/4
f 230/2/4 231/2/4 235/2/4
f 235/2/4 231/2/4 236/2/4
f 232/2/4 227/2/4 237/2/4
f 233/1/4 234/1/4 237/1/4
f 227/1/4 233/1/4 237/1/4
f 237/1/4 234/1/4 238/1/4
f 225/2/4 229/2/4 239/2/4
f 235/1/4 236/1/4 239/1/4
f 229/1/4 235/1/4 239/1/4
f 239/1/4 236/1/4 240/1/4
f 236/2/4 231/2/4 241/2/4
f 231/1/4 232/1/4 241/1/4
f 237/2/4 238/2/4 242/2/4
f 241/1/4 232/1/4 242/1/4
f 232/2/4 237/2/4 242/2/4
f 238/1/4 234/1/4 243/1/4
f 242/2/4 238/2/4 243/2/4
f 234/2/4 214/2/4 244/2/4
f 243/1/4 234/1/4 244/1/4
f 240/1/4 236/1/4 245/1/4
f 239/2/4 240/2/4 245/2/4
f 243/2/4 244/2/4 246/2/4
f 245/1/4 236/1/4 246/1/4
f 241/2/4 242/2/4 246/2/4
f 242/2/4 243/2/4 246/2/4
f 236/2/4 241/2/4 246/2/4
f 239/2/4 245/2/4 247/2/4
f 225/2/4 239/2/4 247/2/4
f 245/2/4 246/2/4 247/2/4
f 244/2/4 214/2/4 248/2/4
f 247/2/4 246/2/4 248/2/4
f 246/2/4 244/2/4 248/2/4
f 251/2/5 250/2/5 249/2/5
f 252/2/5 250/2/5 251/2/5
f 253/2/5 251/2/5 249/2/5
f 254/2/5 251/2/5 253/2/5
f 255/1/5 254/1/5 253/1/5
f 256/2/5 251/2/5 254/2/5
f 256/1/5 254/1/5 255/1/5
f 257/1/5 252/1/5 251/1/5
f 257/2/5 251/2/5 256/2/5
f 257/2/5 256/2/5 255/2/5
f 258/1/5 252/1/5 257/1/5
f 259/2/5 257/2/5 255/2/5
f 259/2/5 258/2/5 257/2/5
f 260/2/5 258/2/5 259/2/5
f 261/2/5 259/2/5 255/2/5
f 262/1/5 260/1/5 259/1/5
f 262/2/5 259/2/5 261/2/5
f 263/2/5 258/2/5 260/2/5
f 263/1/5 260/1/5 262/1/5
f 264/2/5 258/2/5 263/2/5
f 267/3/5 266/3/5 265/3/5
f 268/3/5 266/3/5 267/3/5
f 271/3/5 270/3/5 269/3/5
f 272/3/5 270/3/5 271/3/5
f 275/3/5 274/3/5 273/3/5
f 276/3/5 274/3/5 275/3/5
f 277/2/6 278/2/6 279/2/6
f 279/2/6 278/2/6 280/2/6
f 277/2/6 279/2/6 281/2/6
f 279/3/6 280/3/6 282/3/6
f 281/2/6 279/2/6 282/2/6
f 282/3/6 280/3/6 283/3/6
f 283/3/6 280/3/6 284/3/6
f 280/2/6 278/2/6 285/2/6
f 284/3/6 280/3/6 285/3/6
f 285/2/6 278/2/6 286/2/6
f 281/3/6 282/3/6 287/3/6
f 282/3/6 283/3/6 287/3/6
f 283/4/6 284/4/6 288/4/6
f 287/3/6 283/3/6 288/3/6
f 285/3/6 286/3/6 289/3/6
f 288/4/6 284/4/6 289/4/6
f 284/3/6 285/3/6 289/3/6
f 289/3/6 286/3/6 290/3/6
f 286/2/6 278/2/6 291/2/6
f 290/3/6 286/3/6 291/3/6
f 291/2/6 278/2/6 292/2/6
f 290/3/6 291/3/6 293/3/6
f 291/1/6 292/1/6 293/1/6
f 293/1/6 292/1/6 294/1/6
f 281/3/6 287/3/6 295/3/6
f 289/4/6 290/4/6 295/4/6
f 287/4/6 288/4/6 295/4/6
f 288/4/6 289/4/6 295/4/6
f 295/4/6 290/4/6 296/4/6
f 296/4/6 290/4/6 297/4/6
f 290/3/6 293/3/6 298/3/6
f 297/4/6 290/4/6 298/4/6
f 277/2/6 281/2/6 299/2/6
f 281/3/6 295/3/6 299/3/6
f 295/3/6 296/3/6 299/3/6
f 299/3/6 296/3/6 300/3/6
f 296/4/6 297/4/6 301/4/6
f 300/3/6 296/3/6 301/3/6
f 297/3/6 298/3/6 302/3/6
f 301/4/6 297/4/6 302/4/6
f 298/3/6 293/3/6 303/3/6
f 302/3/6 298/3/6 303/3/6
f 293/2/6 294/2/6 304/2/6
f 303/3/6 293/3/6 304/3/6
f 301/3/6 302/3/6 305/3/6
f 302/3/6 303/3/6 305/3/6
f 299/2/6 300/2/6 305/2/6
f 300/3/6 301/3/6 305/3/6
f 303/2/6 304/2/6 306/2/6
f 305/3/6 303/3/6 306/3/6
f 304/2/6 294/2/6 307/2/6
f 306/2/6 304/2/6 307/2/6
f 307/2/6 294/2/6 308/2/6
f 305/2/6 306/2/6 309/2/6
f 299/2/6 305/2/6 309/2/6
f 277/2/6 299/2/6 309/2/6
f 306/2/6 307/2/6 309/2/6
f 309/2/6 307/2/6 310/2/6
f 310/2/6 307/2/6 311/2/6
f 307/1/6 308/1/6 312/1/6
f 311/2/6 307/2/6 312/2/6
f 312/1/6 308/1/6 313/1/6
f 314/4/6 315/4/6 316/4/6
f 316/4/6 315/4/6 317/4/6
f 317/4/6 318/4/6 319/4/6
f 319/4/6 318/4/6 320/4/6
f 321/3/6 322/3/6 323/3/6
f 323/3/6 322/3/6 324/3/6
f 325/2/6 326/2/6 327/2/6
f 327/2/6 326/2/6 328/2/6
f 325/2/6 327/2/6 329/2/6
f 327/3/6 328/3/6 330/3/6
f 329/2/6 327/2/6 330/2/6
f 330/3/6 328/3/6 331/3/6
f 331/3/6 328/3/6 332/3/6
f 328/2/6 326/2/6 333/2/6
f 332/3/6 328/3/6 333/3/6
f 333/2/6 326/2/6 334/2/6
f 329/3/6 330/3/6 335/3/6
f 330/3/6 331/3/6 335/3/6
f 331/4/6 332/4/6 336/4/6
f 335/3/6 331/3/6 336/3/6
f 333/3/6 334/3/6 337/3/6
f 336/4/6 332/4/6 337/4/6
f 332/3/6 333/3/6 337/3/6
f 337/3/6 334/3/6 338/3/6
f 334/2/6 326/2/6 339/2/6
f 338/3/6 334/3/6 339/3/6
f 339/2/6 326/2/6 340/2/6
f 338/3/6 339/3/6 341/3/6
f 339/1/6 340/1/6 341/1/6
f 341/1/6 340/1/6 342/1/6
f 329/3/6 335/3/6 343/3/6
f 337/4/6 338/4/6 343/4/6
f 335/4/6 336/4/6 343/4/6
f 336/4/6 337/4/6 343/4/6
f 343/4/6 338/4/6 344/4/6
f 344/4/6 338/4/6 345/4/6
f 338/3/6 341/3/6 346/3/6
f 345/4/6 338/4/6 346/4/6
f 325/2/6 329/2/6 347/2/6
f 329/3/6 343/3/6 347/3/6
f 343/3/6 344/3/6 347/3/6
f 347/3/6 344/3/6 348/3/6
f 344/4/6 345/4/6 349/4/6
f 348/3/6 344/3/6 349/3/6
f 345/3/6 346/3/6 350/3/6
f 349/4/6 345/4/6 350/4/6
f 346/3/6 341/3/6 351/3/6
f 350/3/6 346/3/6 351/3/6
f 341/2/6 342/2/6 352/2/6
f 351/3/6 341/3/6 352/3/6
f 349/3/6 350/3/6 353/3/6
f 350/3/6 351/3/6 353/3/6
f 347/2/6 348/2/6 353/2/6
f 348/3/6 349/3/6 353/3/6
f 351/2/6 352/2/6 354/2/6
f 353/3/6 351/3/6 354/3/6
f 347/2/6 353/2/6 355/2/6
f 325/2/6 347/2/6 355/2/6
f 353/2/6 354/2/6 355/2/6
f 352/2/6 342/2/6 356/2/6
f 355/2/6 354/2/6 356/2/6
f 354/2/6 352/2/6 356/2/6
