# MagicaVoxel @ Ephtracy

# group
o 

# material
mtllib Botón.mtl
usemtl palette

# normals
vn -1 0 0
vn 1 0 0
vn 0 0 1
vn 0 0 -1
vn 0 -1 0
vn 0 1 0

# texcoords
vt 0.841797 0.5
vt 0.978516 0.5
vt 0.982422 0.5

# verts
v -0.9 0 0.8
v -0.9 0 -0.9
v -0.9 0.1 0.8
v -0.9 0.1 -0.9
v -0.6 0.1 0.2
v -0.6 0.1 -0.3
v -0.6 0.2 0.2
v -0.6 0.2 -0.3
v -0.5 0.1 0.3
v -0.5 0.1 0.2
v -0.5 0.1 -0.3
v -0.5 0.1 -0.4
v -0.5 0.2 0.3
v -0.5 0.2 0.2
v -0.5 0.2 -0.3
v -0.5 0.2 -0.4
v -0.4 0.1 0.4
v -0.4 0.1 0.3
v -0.4 0.1 -0.4
v -0.4 0.1 -0.5
v -0.4 0.2 0.4
v -0.4 0.2 0.3
v -0.4 0.2 0.1
v -0.4 0.2 -0.2
v -0.4 0.2 -0.4
v -0.4 0.2 -0.5
v -0.4 0.3 0.1
v -0.4 0.3 -0.2
v -0.3 0.1 0.5
v -0.3 0.1 0.4
v -0.3 0.1 -0.5
v -0.3 0.1 -0.6
v -0.3 0.2 0.5
v -0.3 0.2 0.4
v -0.3 0.2 0.2
v -0.3 0.2 0.1
v -0.3 0.2 -0.2
v -0.3 0.2 -0.3
v -0.3 0.2 -0.5
v -0.3 0.2 -0.6
v -0.3 0.3 0.2
v -0.3 0.3 0.1
v -0.3 0.3 -0.2
v -0.3 0.3 -0.3
v -0.3 0.4 0.1
v -0.3 0.4 -0.2
v -0.2 0.2 0.3
v -0.2 0.2 0.2
v -0.2 0.2 -0.3
v -0.2 0.2 -0.4
v -0.2 0.3 0.3
v -0.2 0.3 0.2
v -0.2 0.3 0.1
v -0.2 0.3 -0.2
v -0.2 0.3 -0.3
v -0.2 0.3 -0.4
v -0.2 0.4 0.2
v -0.2 0.4 0.1
v -0.2 0.4 -0.2
v -0.2 0.4 -0.3
v 0.1 0.2 0.3
v 0.1 0.2 0.2
v 0.1 0.2 -0.3
v 0.1 0.2 -0.4
v 0.1 0.3 0.3
v 0.1 0.3 0.2
v 0.1 0.3 0.1
v 0.1 0.3 -0.2
v 0.1 0.3 -0.3
v 0.1 0.3 -0.4
v 0.1 0.4 0.2
v 0.1 0.4 0.1
v 0.1 0.4 -0.2
v 0.1 0.4 -0.3
v 0.2 0.1 0.5
v 0.2 0.1 0.4
v 0.2 0.1 -0.5
v 0.2 0.1 -0.6
v 0.2 0.2 0.5
v 0.2 0.2 0.4
v 0.2 0.2 0.2
v 0.2 0.2 0.1
v 0.2 0.2 -0.2
v 0.2 0.2 -0.3
v 0.2 0.2 -0.5
v 0.2 0.2 -0.6
v 0.2 0.3 0.2
v 0.2 0.3 0.1
v 0.2 0.3 -0.2
v 0.2 0.3 -0.3
v 0.2 0.4 0.1
v 0.2 0.4 -0.2
v 0.3 0.1 0.4
v 0.3 0.1 0.3
v 0.3 0.1 -0.4
v 0.3 0.1 -0.5
v 0.3 0.2 0.4
v 0.3 0.2 0.3
v 0.3 0.2 0.1
v 0.3 0.2 -0.2
v 0.3 0.2 -0.4
v 0.3 0.2 -0.5
v 0.3 0.3 0.1
v 0.3 0.3 -0.2
v 0.4 0.1 0.3
v 0.4 0.1 0.2
v 0.4 0.1 -0.3
v 0.4 0.1 -0.4
v 0.4 0.2 0.3
v 0.4 0.2 0.2
v 0.4 0.2 -0.3
v 0.4 0.2 -0.4
v 0.5 0.1 0.2
v 0.5 0.1 -0.3
v 0.5 0.2 0.2
v 0.5 0.2 -0.3
v 0.8 0 0.8
v 0.8 0 -0.9
v 0.8 0.1 0.8
v 0.8 0.1 -0.9
v -0.9 0 0.8
v -0.9 0.1 0.8
v 0.8 0 0.8
v 0.8 0.1 0.8
v -0.3 0.1 0.5
v -0.3 0.2 0.5
v 0.2 0.1 0.5
v 0.2 0.2 0.5
v -0.4 0.1 0.4
v -0.4 0.2 0.4
v -0.3 0.1 0.4
v -0.3 0.2 0.4
v 0.2 0.1 0.4
v 0.2 0.2 0.4
v 0.3 0.1 0.4
v 0.3 0.2 0.4
v -0.5 0.1 0.3
v -0.5 0.2 0.3
v -0.4 0.1 0.3
v -0.4 0.2 0.3
v -0.2 0.2 0.3
v -0.2 0.3 0.3
v 0.1 0.2 0.3
v 0.1 0.3 0.3
v 0.3 0.1 0.3
v 0.3 0.2 0.3
v 0.4 0.1 0.3
v 0.4 0.2 0.3
v -0.6 0.1 0.2
v -0.6 0.2 0.2
v -0.5 0.1 0.2
v -0.5 0.2 0.2
v -0.3 0.2 0.2
v -0.3 0.3 0.2
v -0.2 0.2 0.2
v -0.2 0.3 0.2
v -0.2 0.4 0.2
v 0.1 0.2 0.2
v 0.1 0.3 0.2
v 0.1 0.4 0.2
v 0.2 0.2 0.2
v 0.2 0.3 0.2
v 0.4 0.1 0.2
v 0.4 0.2 0.2
v 0.5 0.1 0.2
v 0.5 0.2 0.2
v -0.4 0.2 0.1
v -0.4 0.3 0.1
v -0.3 0.2 0.1
v -0.3 0.3 0.1
v -0.3 0.4 0.1
v -0.2 0.3 0.1
v -0.2 0.4 0.1
v 0.1 0.3 0.1
v 0.1 0.4 0.1
v 0.2 0.2 0.1
v 0.2 0.3 0.1
v 0.2 0.4 0.1
v 0.3 0.2 0.1
v 0.3 0.3 0.1
v -0.4 0.2 -0.2
v -0.4 0.3 -0.2
v -0.3 0.2 -0.2
v -0.3 0.3 -0.2
v -0.3 0.4 -0.2
v -0.2 0.3 -0.2
v -0.2 0.4 -0.2
v 0.1 0.3 -0.2
v 0.1 0.4 -0.2
v 0.2 0.2 -0.2
v 0.2 0.3 -0.2
v 0.2 0.4 -0.2
v 0.3 0.2 -0.2
v 0.3 0.3 -0.2
v -0.6 0.1 -0.3
v -0.6 0.2 -0.3
v -0.5 0.1 -0.3
v -0.5 0.2 -0.3
v -0.3 0.2 -0.3
v -0.3 0.3 -0.3
v -0.2 0.2 -0.3
v -0.2 0.3 -0.3
v -0.2 0.4 -0.3
v 0.1 0.2 -0.3
v 0.1 0.3 -0.3
v 0.1 0.4 -0.3
v 0.2 0.2 -0.3
v 0.2 0.3 -0.3
v 0.4 0.1 -0.3
v 0.4 0.2 -0.3
v 0.5 0.1 -0.3
v 0.5 0.2 -0.3
v -0.5 0.1 -0.4
v -0.5 0.2 -0.4
v -0.4 0.1 -0.4
v -0.4 0.2 -0.4
v -0.2 0.2 -0.4
v -0.2 0.3 -0.4
v 0.1 0.2 -0.4
v 0.1 0.3 -0.4
v 0.3 0.1 -0.4
v 0.3 0.2 -0.4
v 0.4 0.1 -0.4
v 0.4 0.2 -0.4
v -0.4 0.1 -0.5
v -0.4 0.2 -0.5
v -0.3 0.1 -0.5
v -0.3 0.2 -0.5
v 0.2 0.1 -0.5
v 0.2 0.2 -0.5
v 0.3 0.1 -0.5
v 0.3 0.2 -0.5
v -0.3 0.1 -0.6
v -0.3 0.2 -0.6
v 0.2 0.1 -0.6
v 0.2 0.2 -0.6
v -0.9 0 -0.9
v -0.9 0.1 -0.9
v 0.8 0 -0.9
v 0.8 0.1 -0.9
v -0.9 0 0.8
v 0.8 0 0.8
v -0.9 0 -0.9
v 0.8 0 -0.9
v -0.9 0.1 0.8
v 0.8 0.1 0.8
v -0.3 0.1 0.5
v 0.2 0.1 0.5
v -0.4 0.1 0.4
v -0.3 0.1 0.4
v 0.2 0.1 0.4
v 0.3 0.1 0.4
v -0.5 0.1 0.3
v -0.4 0.1 0.3
v 0.3 0.1 0.3
v 0.4 0.1 0.3
v -0.6 0.1 0.2
v -0.5 0.1 0.2
v 0.4 0.1 0.2
v 0.5 0.1 0.2
v -0.6 0.1 -0.3
v -0.5 0.1 -0.3
v 0.4 0.1 -0.3
v 0.5 0.1 -0.3
v -0.5 0.1 -0.4
v -0.4 0.1 -0.4
v 0.3 0.1 -0.4
v 0.4 0.1 -0.4
v -0.4 0.1 -0.5
v -0.3 0.1 -0.5
v 0.2 0.1 -0.5
v 0.3 0.1 -0.5
v -0.3 0.1 -0.6
v 0.2 0.1 -0.6
v -0.9 0.1 -0.9
v 0.8 0.1 -0.9
v -0.3 0.2 0.5
v 0.2 0.2 0.5
v -0.4 0.2 0.4
v -0.3 0.2 0.4
v 0.2 0.2 0.4
v 0.3 0.2 0.4
v -0.5 0.2 0.3
v -0.4 0.2 0.3
v -0.2 0.2 0.3
v 0.1 0.2 0.3
v 0.3 0.2 0.3
v 0.4 0.2 0.3
v -0.6 0.2 0.2
v -0.5 0.2 0.2
v -0.3 0.2 0.2
v -0.2 0.2 0.2
v 0.1 0.2 0.2
v 0.2 0.2 0.2
v 0.4 0.2 0.2
v 0.5 0.2 0.2
v -0.4 0.2 0.1
v -0.3 0.2 0.1
v 0.2 0.2 0.1
v 0.3 0.2 0.1
v -0.4 0.2 -0.2
v -0.3 0.2 -0.2
v 0.2 0.2 -0.2
v 0.3 0.2 -0.2
v -0.6 0.2 -0.3
v -0.5 0.2 -0.3
v -0.3 0.2 -0.3
v -0.2 0.2 -0.3
v 0.1 0.2 -0.3
v 0.2 0.2 -0.3
v 0.4 0.2 -0.3
v 0.5 0.2 -0.3
v -0.5 0.2 -0.4
v -0.4 0.2 -0.4
v -0.2 0.2 -0.4
v 0.1 0.2 -0.4
v 0.3 0.2 -0.4
v 0.4 0.2 -0.4
v -0.4 0.2 -0.5
v -0.3 0.2 -0.5
v 0.2 0.2 -0.5
v 0.3 0.2 -0.5
v -0.3 0.2 -0.6
v 0.2 0.2 -0.6
v -0.2 0.3 0.3
v 0.1 0.3 0.3
v -0.3 0.3 0.2
v -0.2 0.3 0.2
v 0.1 0.3 0.2
v 0.2 0.3 0.2
v -0.4 0.3 0.1
v -0.3 0.3 0.1
v -0.2 0.3 0.1
v 0.1 0.3 0.1
v 0.2 0.3 0.1
v 0.3 0.3 0.1
v -0.4 0.3 -0.2
v -0.3 0.3 -0.2
v -0.2 0.3 -0.2
v 0.1 0.3 -0.2
v 0.2 0.3 -0.2
v 0.3 0.3 -0.2
v -0.3 0.3 -0.3
v -0.2 0.3 -0.3
v 0.1 0.3 -0.3
v 0.2 0.3 -0.3
v -0.2 0.3 -0.4
v 0.1 0.3 -0.4
v -0.2 0.4 0.2
v 0.1 0.4 0.2
v -0.3 0.4 0.1
v -0.2 0.4 0.1
v 0.1 0.4 0.1
v 0.2 0.4 0.1
v -0.3 0.4 -0.2
v -0.2 0.4 -0.2
v 0.1 0.4 -0.2
v 0.2 0.4 -0.2
v -0.2 0.4 -0.3
v 0.1 0.4 -0.3

# faces
f 3/2/1 2/2/1 1/2/1
f 4/2/1 2/2/1 3/2/1
f 7/3/1 6/3/1 5/3/1
f 8/3/1 6/3/1 7/3/1
f 13/3/1 10/3/1 9/3/1
f 14/3/1 10/3/1 13/3/1
f 15/3/1 12/3/1 11/3/1
f 16/3/1 12/3/1 15/3/1
f 21/3/1 18/3/1 17/3/1
f 22/3/1 18/3/1 21/3/1
f 25/3/1 20/3/1 19/3/1
f 26/3/1 20/3/1 25/3/1
f 27/1/1 24/1/1 23/1/1
f 28/1/1 24/1/1 27/1/1
f 33/3/1 30/3/1 29/3/1
f 34/3/1 30/3/1 33/3/1
f 39/3/1 32/3/1 31/3/1
f 40/3/1 32/3/1 39/3/1
f 41/1/1 36/1/1 35/1/1
f 42/1/1 36/1/1 41/1/1
f 43/1/1 38/1/1 37/1/1
f 44/1/1 38/1/1 43/1/1
f 45/1/1 43/1/1 42/1/1
f 46/1/1 43/1/1 45/1/1
f 51/1/1 48/1/1 47/1/1
f 52/1/1 48/1/1 51/1/1
f 55/1/1 50/1/1 49/1/1
f 56/1/1 50/1/1 55/1/1
f 57/1/1 53/1/1 52/1/1
f 58/1/1 53/1/1 57/1/1
f 59/1/1 55/1/1 54/1/1
f 60/1/1 55/1/1 59/1/1
f 61/1/2 62/1/2 65/1/2
f 65/1/2 62/1/2 66/1/2
f 63/1/2 64/1/2 69/1/2
f 69/1/2 64/1/2 70/1/2
f 66/1/2 67/1/2 71/1/2
f 71/1/2 67/1/2 72/1/2
f 68/1/2 69/1/2 73/1/2
f 73/1/2 69/1/2 74/1/2
f 75/3/2 76/3/2 79/3/2
f 79/3/2 76/3/2 80/3/2
f 77/3/2 78/3/2 85/3/2
f 85/3/2 78/3/2 86/3/2
f 81/1/2 82/1/2 87/1/2
f 87/1/2 82/1/2 88/1/2
f 83/1/2 84/1/2 89/1/2
f 89/1/2 84/1/2 90/1/2
f 88/1/2 89/1/2 91/1/2
f 91/1/2 89/1/2 92/1/2
f 93/3/2 94/3/2 97/3/2
f 97/3/2 94/3/2 98/3/2
f 95/3/2 96/3/2 101/3/2
f 101/3/2 96/3/2 102/3/2
f 99/1/2 100/1/2 103/1/2
f 103/1/2 100/1/2 104/1/2
f 105/3/2 106/3/2 109/3/2
f 109/3/2 106/3/2 110/3/2
f 107/3/2 108/3/2 111/3/2
f 111/3/2 108/3/2 112/3/2
f 113/3/2 114/3/2 115/3/2
f 115/3/2 114/3/2 116/3/2
f 117/2/2 118/2/2 119/2/2
f 119/2/2 118/2/2 120/2/2
f 123/2/3 122/2/3 121/2/3
f 124/2/3 122/2/3 123/2/3
f 127/3/3 126/3/3 125/3/3
f 128/3/3 126/3/3 127/3/3
f 131/3/3 130/3/3 129/3/3
f 132/3/3 130/3/3 131/3/3
f 135/3/3 134/3/3 133/3/3
f 136/3/3 134/3/3 135/3/3
f 139/3/3 138/3/3 137/3/3
f 140/3/3 138/3/3 139/3/3
f 143/1/3 142/1/3 141/1/3
f 144/1/3 142/1/3 143/1/3
f 147/3/3 146/3/3 145/3/3
f 148/3/3 146/3/3 147/3/3
f 151/3/3 150/3/3 149/3/3
f 152/3/3 150/3/3 151/3/3
f 155/1/3 154/1/3 153/1/3
f 156/1/3 154/1/3 155/1/3
f 159/1/3 157/1/3 156/1/3
f 160/1/3 157/1/3 159/1/3
f 161/1/3 159/1/3 158/1/3
f 162/1/3 159/1/3 161/1/3
f 165/3/3 164/3/3 163/3/3
f 166/3/3 164/3/3 165/3/3
f 169/1/3 168/1/3 167/1/3
f 170/1/3 168/1/3 169/1/3
f 172/1/3 171/1/3 170/1/3
f 173/1/3 171/1/3 172/1/3
f 177/1/3 175/1/3 174/1/3
f 178/1/3 175/1/3 177/1/3
f 179/1/3 177/1/3 176/1/3
f 180/1/3 177/1/3 179/1/3
f 181/1/4 182/1/4 183/1/4
f 183/1/4 182/1/4 184/1/4
f 184/1/4 185/1/4 186/1/4
f 186/1/4 185/1/4 187/1/4
f 188/1/4 189/1/4 191/1/4
f 191/1/4 189/1/4 192/1/4
f 190/1/4 191/1/4 193/1/4
f 193/1/4 191/1/4 194/1/4
f 195/3/4 196/3/4 197/3/4
f 197/3/4 196/3/4 198/3/4
f 199/1/4 200/1/4 201/1/4
f 201/1/4 200/1/4 202/1/4
f 202/1/4 203/1/4 205/1/4
f 205/1/4 203/1/4 206/1/4
f 204/1/4 205/1/4 207/1/4
f 207/1/4 205/1/4 208/1/4
f 209/3/4 210/3/4 211/3/4
f 211/3/4 210/3/4 212/3/4
f 213/3/4 214/3/4 215/3/4
f 215/3/4 214/3/4 216/3/4
f 217/1/4 218/1/4 219/1/4
f 219/1/4 218/1/4 220/1/4
f 221/3/4 222/3/4 223/3/4
f 223/3/4 222/3/4 224/3/4
f 225/3/4 226/3/4 227/3/4
f 227/3/4 226/3/4 228/3/4
f 229/3/4 230/3/4 231/3/4
f 231/3/4 230/3/4 232/3/4
f 233/3/4 234/3/4 235/3/4
f 235/3/4 234/3/4 236/3/4
f 237/2/4 238/2/4 239/2/4
f 239/2/4 238/2/4 240/2/4
f 243/2/5 242/2/5 241/2/5
f 244/2/5 242/2/5 243/2/5
f 245/2/6 246/2/6 247/2/6
f 247/2/6 246/2/6 248/2/6
f 245/2/6 247/2/6 249/2/6
f 249/2/6 247/2/6 250/2/6
f 248/2/6 246/2/6 251/2/6
f 251/2/6 246/2/6 252/2/6
f 245/2/6 249/2/6 253/2/6
f 253/2/6 249/2/6 254/2/6
f 252/2/6 246/2/6 255/2/6
f 255/2/6 246/2/6 256/2/6
f 245/2/6 253/2/6 257/2/6
f 257/2/6 253/2/6 258/2/6
f 256/2/6 246/2/6 259/2/6
f 259/2/6 246/2/6 260/2/6
f 245/2/6 257/2/6 261/2/6
f 260/2/6 246/2/6 264/2/6
f 261/2/6 262/2/6 265/2/6
f 263/2/6 264/2/6 268/2/6
f 265/2/6 266/2/6 269/2/6
f 267/2/6 268/2/6 272/2/6
f 269/2/6 270/2/6 273/2/6
f 271/2/6 272/2/6 274/2/6
f 269/2/6 273/2/6 275/2/6
f 273/2/6 274/2/6 275/2/6
f 245/2/6 261/2/6 275/2/6
f 261/2/6 265/2/6 275/2/6
f 265/2/6 269/2/6 275/2/6
f 274/2/6 272/2/6 276/2/6
f 275/2/6 274/2/6 276/2/6
f 264/2/6 246/2/6 276/2/6
f 272/2/6 268/2/6 276/2/6
f 268/2/6 264/2/6 276/2/6
f 277/3/6 278/3/6 280/3/6
f 280/3/6 278/3/6 281/3/6
f 279/3/6 280/3/6 284/3/6
f 281/3/6 282/3/6 284/3/6
f 280/3/6 281/3/6 284/3/6
f 284/3/6 282/3/6 285/3/6
f 285/3/6 282/3/6 286/3/6
f 286/3/6 282/3/6 287/3/6
f 283/3/6 284/3/6 290/3/6
f 284/3/6 285/3/6 290/3/6
f 290/3/6 285/3/6 291/3/6
f 291/3/6 285/3/6 292/3/6
f 286/3/6 287/3/6 293/3/6
f 287/3/6 288/3/6 293/3/6
f 293/3/6 288/3/6 294/3/6
f 294/3/6 288/3/6 295/3/6
f 290/3/6 291/3/6 297/3/6
f 289/3/6 290/3/6 297/3/6
f 297/3/6 291/3/6 298/3/6
f 295/3/6 296/3/6 299/3/6
f 294/3/6 295/3/6 299/3/6
f 299/3/6 296/3/6 300/3/6
f 289/3/6 297/3/6 301/3/6
f 300/3/6 296/3/6 304/3/6
f 301/3/6 302/3/6 305/3/6
f 289/3/6 301/3/6 305/3/6
f 305/3/6 302/3/6 306/3/6
f 306/3/6 302/3/6 307/3/6
f 303/3/6 304/3/6 310/3/6
f 304/3/6 296/3/6 311/3/6
f 310/3/6 304/3/6 311/3/6
f 311/3/6 296/3/6 312/3/6
f 307/3/6 308/3/6 313/3/6
f 306/3/6 307/3/6 313/3/6
f 313/3/6 308/3/6 314/3/6
f 314/3/6 308/3/6 315/3/6
f 309/3/6 310/3/6 316/3/6
f 310/3/6 311/3/6 316/3/6
f 316/3/6 311/3/6 317/3/6
f 317/3/6 311/3/6 318/3/6
f 314/3/6 315/3/6 319/3/6
f 316/3/6 317/3/6 319/3/6
f 315/3/6 316/3/6 319/3/6
f 319/3/6 317/3/6 320/3/6
f 320/3/6 317/3/6 321/3/6
f 321/3/6 317/3/6 322/3/6
f 320/3/6 321/3/6 323/3/6
f 323/3/6 321/3/6 324/3/6
f 325/1/6 326/1/6 328/1/6
f 328/1/6 326/1/6 329/1/6
f 327/1/6 328/1/6 332/1/6
f 332/1/6 328/1/6 333/1/6
f 329/1/6 330/1/6 334/1/6
f 334/1/6 330/1/6 335/1/6
f 331/1/6 332/1/6 337/1/6
f 337/1/6 332/1/6 338/1/6
f 335/1/6 336/1/6 341/1/6
f 341/1/6 336/1/6 342/1/6
f 338/1/6 339/1/6 343/1/6
f 343/1/6 339/1/6 344/1/6
f 340/1/6 341/1/6 345/1/6
f 345/1/6 341/1/6 346/1/6
f 344/1/6 345/1/6 347/1/6
f 347/1/6 345/1/6 348/1/6
f 349/1/6 350/1/6 352/1/6
f 352/1/6 350/1/6 353/1/6
f 351/1/6 352/1/6 355/1/6
f 353/1/6 354/1/6 355/1/6
f 352/1/6 353/1/6 355/1/6
f 355/1/6 354/1/6 356/1/6
f 356/1/6 354/1/6 357/1/6
f 357/1/6 354/1/6 358/1/6
f 356/1/6 357/1/6 359/1/6
f 359/1/6 357/1/6 360/1/6
